<svg width="640" height="480" viewBox="0 0 640 480" fill="none" xmlns="http://www.w3.org/2000/svg">
  <rect width="640" height="480" rx="28" fill="url(#bg)"/>
  <circle cx="506" cy="104" r="76" fill="#1F8CFF" fill-opacity="0.14"/>
  <rect x="205" y="64" width="230" height="342" rx="38" fill="#FCFEFE"/>
  <rect x="220" y="79" width="200" height="312" rx="30" fill="#EEF6F2"/>
  <rect x="263" y="104" width="114" height="18" rx="9" fill="#D6E6DF"/>
  <rect x="243" y="154" width="154" height="170" rx="24" fill="url(#front)"/>
  <rect x="270" y="344" width="100" height="9" rx="4.5" fill="#1D6A57" fill-opacity="0.24"/>
  <circle cx="393" cy="108" r="9" fill="#1F8CFF"/>
  <path d="M469 169C497 190 516 224 518 260" stroke="#D8F7EA" stroke-width="8" stroke-linecap="round"/>
  <path d="M174 207C145 228 123 259 118 302" stroke="#D8F7EA" stroke-width="8" stroke-linecap="round"/>
  <defs>
    <linearGradient id="bg" x1="38" y1="29" x2="608" y2="437" gradientUnits="userSpaceOnUse">
      <stop stop-color="#F4FAF7"/>
      <stop offset="1" stop-color="#DDEEE6"/>
    </linearGradient>
    <linearGradient id="front" x1="243" y1="154" x2="397" y2="324" gradientUnits="userSpaceOnUse">
      <stop stop-color="#114539"/>
      <stop offset="1" stop-color="#1D6A57"/>
    </linearGradient>
  </defs>
</svg>
