<svg width="960" height="720" viewBox="0 0 960 720" fill="none" xmlns="http://www.w3.org/2000/svg">
  <rect width="960" height="720" rx="40" fill="url(#bg)"/>
  <circle cx="795" cy="127" r="124" fill="url(#glow)" fill-opacity="0.55"/>
  <circle cx="182" cy="582" r="166" fill="#F28F3B" fill-opacity="0.18"/>
  <path d="M716 170C765 248 786 352 747 451C713 537 632 601 544 627C456 653 344 633 276 564C212 499 193 398 219 309C244 224 314 151 399 125C490 97 628 108 716 170Z" fill="white" fill-opacity="0.12"/>
  <rect x="312" y="122" width="333" height="476" rx="54" fill="#FDFEFE"/>
  <rect x="333" y="143" width="291" height="434" rx="42" fill="#EEF6F2"/>
  <rect x="386" y="178" width="184" height="34" rx="17" fill="#DCEBE6"/>
  <rect x="360" y="245" width="238" height="250" rx="32" fill="url(#mesh)"/>
  <rect x="410" y="519" width="139" height="15" rx="7.5" fill="#1D6A57" fill-opacity="0.2"/>
  <rect x="398" y="548" width="163" height="8" rx="4" fill="#1D6A57" fill-opacity="0.12"/>
  <rect x="427" y="155" width="103" height="13" rx="6.5" fill="#1D6A57" fill-opacity="0.5"/>
  <circle cx="614" cy="190" r="13" fill="#1F8CFF"/>
  <path d="M724 255C761 286 791 337 793 386C796 435 769 483 728 514" stroke="#D8F7EA" stroke-width="10" stroke-linecap="round"/>
  <path d="M763 228C820 277 857 347 855 416" stroke="#D8F7EA" stroke-width="10" stroke-linecap="round" stroke-opacity="0.7"/>
  <path d="M224 329C177 364 146 421 145 485" stroke="#D8F7EA" stroke-width="10" stroke-linecap="round"/>
  <path d="M203 264C136 316 101 383 100 455" stroke="#D8F7EA" stroke-width="10" stroke-linecap="round" stroke-opacity="0.7"/>
  <g opacity="0.9">
    <circle cx="739" cy="532" r="50" fill="white" fill-opacity="0.18"/>
    <path d="M739 506C729 523 716 535 693 543C716 545 729 554 739 572C748 555 760 545 785 543C761 535 749 523 739 506Z" fill="white"/>
  </g>
  <defs>
    <linearGradient id="bg" x1="70" y1="48" x2="867" y2="674" gradientUnits="userSpaceOnUse">
      <stop stop-color="#0C3B31"/>
      <stop offset="0.63" stop-color="#165546"/>
      <stop offset="1" stop-color="#1F8CFF"/>
    </linearGradient>
    <radialGradient id="glow" cx="0" cy="0" r="1" gradientUnits="userSpaceOnUse" gradientTransform="translate(795 127) rotate(90) scale(124)">
      <stop stop-color="#D9F3FF"/>
      <stop offset="1" stop-color="#D9F3FF" stop-opacity="0"/>
    </radialGradient>
    <linearGradient id="mesh" x1="360" y1="245" x2="598" y2="495" gradientUnits="userSpaceOnUse">
      <stop stop-color="#0F4338"/>
      <stop offset="1" stop-color="#1D6A57"/>
    </linearGradient>
  </defs>
</svg>
